%FSLAX34Y34*%
%MOMM*%
%LNCOPPER_TOP*%
G71*
G01*
%ADD10R, 10.00X5.00*%
%ADD11R, 8.00X3.00*%
%ADD12R, 3.00X8.00*%
%ADD13R, 5.00X3.00*%
%ADD14R, 5.00X1.70*%
%ADD15R, 5.00X8.00*%
%ADD16C, 1.70*%
%ADD17C, 4.70*%
%ADD18R, 5.00X4.50*%
%ADD19R, 5.00X8.30*%
%ADD20R, 5.00X4.20*%
%LPD*%
X267500Y780000D02*
G54D10*
D03*
X277500Y695000D02*
G54D11*
D03*
X277500Y740000D02*
G54D11*
D03*
X407396Y778750D02*
G54D12*
D03*
X332396Y778750D02*
G54D12*
D03*
X159763Y810213D02*
G54D13*
D03*
X159763Y740213D02*
G54D13*
D03*
X160000Y775000D02*
G54D14*
D03*
X390000Y778543D02*
G54D15*
D03*
X489763Y810213D02*
G54D13*
D03*
X489763Y740213D02*
G54D13*
D03*
X490000Y775000D02*
G54D14*
D03*
G54D16*
X160000Y775000D02*
X262500Y775000D01*
X267500Y780000D01*
G54D16*
X490000Y775000D02*
X393543Y775000D01*
X390000Y778543D01*
G54D17*
X159597Y730364D02*
X159763Y710237D01*
X210000Y660000D01*
X414550Y660000D01*
X485363Y731013D01*
X490000Y710000D02*
G54D18*
D03*
X490000Y850000D02*
G54D19*
D03*
X160000Y840000D02*
G54D20*
D03*
X159763Y710237D02*
G54D20*
D03*
X260000Y820000D02*
G54D20*
D03*
M02*
